<?xml version="1.0" encoding="UTF-8"?>
<svg id="Layer_1" data-name="Layer 1" xmlns="http://www.w3.org/2000/svg" viewBox="0 0 1080 1080">
  <defs>
    <style>
      .cls-1 {
        fill: #5a6134;
      }
    </style>
  </defs>
  <path class="cls-1" d="M625.94,256.83h-136.63v-113.51l60.43-15.11v-10.07h-206.47v10.07l60.43,15.11v113.51h-39.62c-3.37,0-5.04,2.36-5.04,7.05,1.34,1.35,3.02,2.36,5.04,3.02h3.02c18.76,0,30.95,6.59,36.6,19.72v345.18c0,32.91-3.19,61.11-9.57,84.6-6.39,23.51-15.11,42.81-26.19,57.91-11.08,15.11-24.01,26.19-38.77,33.24-14.78,7.05-30.22,10.58-46.33,10.58-20.14,0-38.27-2.85-54.39-8.56-16.12-5.69-29.89-13.25-41.3-22.66-11.42-9.39-20.14-20.14-26.19-32.23-6.04-12.09-9.06-24.5-9.06-37.27,0-60.43,33.57-95.68,100.72-105.75l-70.5-60.43c-22.16,4.71-41.14,16.46-56.9,35.25-15.79,18.81-23.67,47.34-23.67,85.61,0,21.5,4.69,42.14,14.1,61.94,9.4,19.81,22.32,37.44,38.78,52.88,16.45,15.45,35.58,27.87,57.41,37.27,21.81,9.39,45.48,14.1,71.01,14.1,31.55,0,60.08-4.88,85.61-14.6,25.51-9.73,47.16-23.5,64.96-41.3,17.78-17.78,31.55-39.44,41.3-64.96,9.73-25.51,14.6-54.04,14.6-85.61v-364.9h96.35c208.14,0,312.23,114.16,312.23,342.44s-104.09,342.44-312.23,342.44h-97.7v-88.83h-80.57v48.54c0,26.86-13.44,40.29-40.29,40.29h-5.04c-3.37,0-5.04,2.36-5.04,7.05,1.34,1.35,3.02,2.36,5.04,3.02h263.88c235,0,352.51-117.49,352.51-352.51s-117.51-352.51-352.51-352.51Z"/>
</svg>